<svg xmlns="http://www.w3.org/2000/svg" xmlns:xlink="http://www.w3.org/1999/xlink" width="470" height="470" version="1.1" viewBox="0 0 470 470"><defs><path id="path_1" d="M0 0L470 0L470 470L0 470L0 0Z"/><clipPath id="mask_1"><use xlink:href="#path_1"/></clipPath></defs><g id="coin-svgrepo-com"><path id="Background" fill="none" fill-rule="evenodd" stroke="none" d="M0 0L470 0L470 470L0 470L0 0Z"/><g clip-path="url(#mask_1)"><g id="Group"><g id="Group"><path id="Shape" fill="#FFF" stroke="none" d="M252.5 223L217.6 223C203.1 223 191.3 211.2 191.3 196.7C191.3 182.2 203.1 170.4 217.6 170.4L279.2 170.4C285.8 170.4 291.2 165 291.2 158.4C291.2 151.8 285.8 146.4 279.2 146.4L247.1 146.4L247.1 121.9C247.1 115.3 241.7 109.9 235.1 109.9C228.5 109.9 223.1 115.3 223.1 121.9L223.1 146.4L217.6 146.4C189.9 146.4 167.3 169 167.3 196.7C167.3 224.4 189.9 247 217.6 247L252.5 247C267 247 278.8 258.8 278.8 273.3C278.8 287.8 267 299.6 252.5 299.6L189.8 299.6C183.2 299.6 177.8 305 177.8 311.6C177.8 318.2 183.2 323.6 189.8 323.6L223 323.6L223 348.6C223 355.2 228.4 360.6 235 360.6C241.6 360.6 247 355.2 247 348.6L247 323.6L252.8 323.6C252.9 323.6 253 323.6 253.1 323.6C280.5 323.2 302.7 300.8 302.7 273.3C302.7 245.5 280.2 223 252.5 223L252.5 223Z"/><path id="Shape" fill="#FFF" fill-rule="evenodd" stroke="none" d="M401.2 68.8C356.8 24.4 297.8 0 235 0C172.2 0 113.2 24.4 68.8 68.8C24.4 113.2 0 172.2 0 235C0 297.8 24.4 356.8 68.8 401.2C113.2 445.6 172.2 470 235 470C297.8 470 356.8 445.6 401.2 401.2C445.6 356.8 470 297.8 470 235C470 172.2 445.6 113.2 401.2 68.8L401.2 68.8ZM235 446C118.7 446 24 351.3 24 235C24 118.7 118.7 24 235 24C351.3 24 446 118.7 446 235C446 351.3 351.3 446 235 446L235 446Z"/></g></g></g></g></svg>