<?xml version="1.0" encoding="utf-8"?>
<svg width="470px" height="470px" viewBox="0 0 470 470" version="1.1" xmlns:xlink="http://www.w3.org/1999/xlink" xmlns="http://www.w3.org/2000/svg">
  <defs>
    <path d="M0 0L470 0L470 470L0 470L0 0Z" id="path_1" />
    <clipPath id="mask_1">
      <use xlink:href="#path_1" />
    </clipPath>
  </defs>
  <g id="coffee-svgrepo-com(1)">
    <path d="M0 0L470 0L470 470L0 470L0 0Z" id="Background" fill="none" fill-rule="evenodd" stroke="none" />
    <g clip-path="url(#mask_1)">
      <g id="Group" transform="translate(0 54.328003)">
        <path d="M155.821 234.797C164.357 226.24 167.619 213.709 165.005 199.507C162.574 186.306 155.245 173.046 144.368 162.169C130.905 148.706 113.506 140.668 97.823 140.668C87.342 140.668 78.319 144.147 71.728 150.728C63.142 159.336 59.881 171.866 62.495 186.068C64.925 199.269 72.254 212.528 83.131 223.406C96.595 236.869 113.995 244.907 129.677 244.907C140.158 244.907 149.182 241.428 155.772 234.847C155.778 234.841 155.785 234.835 155.821 234.797L155.821 234.797ZM133.762 172.776C142.511 181.525 148.367 191.983 150.253 202.223C151.334 208.095 150.991 213.392 149.32 217.751L88.79 157.221C91.969 156.01 95.21 155.668 97.823 155.668C109.615 155.668 123.05 162.063 133.762 172.776L133.762 172.776ZM129.677 229.907C117.886 229.907 104.45 223.511 93.739 212.799C84.99 204.05 79.134 193.592 77.248 183.352C76.167 177.48 76.51 172.183 78.181 167.824L138.711 228.354C135.53 229.565 132.29 229.907 129.677 229.907L129.677 229.907Z" id="Shape" fill="#FFFEFE" fill-rule="evenodd" stroke="none" />
        <path d="M398.321 234.797C406.857 226.24 410.119 213.709 407.505 199.507C405.074 186.306 397.745 173.046 386.868 162.169C373.405 148.706 356.006 140.668 340.323 140.668C329.842 140.668 320.82 144.147 314.228 150.728C305.642 159.336 302.381 171.866 304.995 186.068C307.425 199.269 314.754 212.528 325.631 223.406C339.095 236.869 356.495 244.907 372.177 244.907C382.658 244.907 391.682 241.428 398.272 234.847C398.278 234.841 398.285 234.835 398.321 234.797L398.321 234.797ZM376.262 172.776C385.011 181.525 390.867 191.983 392.753 202.223C393.834 208.095 393.491 213.392 391.82 217.751L331.29 157.221C334.469 156.01 337.71 155.668 340.323 155.668C352.115 155.668 365.55 162.063 376.262 172.776L376.262 172.776ZM372.177 229.907C360.386 229.907 346.95 223.511 336.239 212.799C327.49 204.05 321.634 193.592 319.748 183.352C318.667 177.48 319.01 172.183 320.681 167.824L381.211 228.354C378.03 229.565 374.79 229.907 372.177 229.907L372.177 229.907Z" id="Shape" fill="#FFFEFE" fill-rule="evenodd" stroke="none" />
        <path d="M462.5 84.23C466.643 84.23 470 80.872 470 76.73L470 46.73C470 42.588 466.643 39.23 462.5 39.23L448.74 39.23L440.353 5.681C439.518 2.342 436.518 0 433.077 0L279.423 0C275.982 0 272.982 2.342 272.147 5.681L263.76 39.23L250 39.23C245.857 39.23 242.5 42.588 242.5 46.73L242.5 76.73C242.5 80.872 245.857 84.23 250 84.23L252.914 84.23L267.671 258.845L202.329 258.845L217.086 84.23L220 84.23C224.143 84.23 227.5 80.872 227.5 76.73L227.5 46.73C227.5 42.588 224.143 39.23 220 39.23L206.24 39.23L197.853 5.681C197.018 2.342 194.018 0 190.577 0L36.923 0C33.482 0 30.482 2.342 29.647 5.681L21.26 39.23L7.5 39.23C3.357 39.23 0 42.588 0 46.73L0 76.73C0 80.872 3.357 84.23 7.5 84.23L10.414 84.23L25.171 258.845L7.5 258.845C3.357 258.845 0 262.203 0 266.345L0 296.345C0 300.487 3.357 303.845 7.5 303.845L21.384 303.845L24.4 339.53C25.417 351.559 36.064 361.345 48.136 361.345L179.363 361.345C191.435 361.345 202.083 351.559 203.099 339.531L206.115 303.845L263.884 303.845L266.9 339.53C267.917 351.559 278.564 361.345 290.636 361.345L421.863 361.345C433.935 361.345 444.583 351.559 445.599 339.531L448.615 303.845L462.5 303.845C466.643 303.845 470 300.487 470 296.345L470 266.345C470 262.203 466.643 258.845 462.5 258.845L444.829 258.845L459.586 84.23L462.5 84.23L462.5 84.23ZM257.5 54.23L269.458 54.23C269.565 54.232 269.675 54.232 269.784 54.23L412.885 54.23C417.028 54.23 420.385 50.872 420.385 46.73C420.385 42.588 417.028 39.23 412.885 39.23L279.221 39.23L285.279 15L427.222 15L435.609 48.549C436.444 51.888 439.444 54.23 442.885 54.23L455 54.23L455 69.23L259.944 69.23C259.941 69.23 257.5 69.23 257.5 69.23L257.5 54.23L257.5 54.23ZM15 54.23L26.958 54.23C27.065 54.232 27.175 54.232 27.284 54.23L170.385 54.23C174.528 54.23 177.885 50.872 177.885 46.73C177.885 42.588 174.528 39.23 170.385 39.23L36.721 39.23L42.779 15L184.722 15L193.109 48.549C193.944 51.888 196.944 54.23 200.385 54.23L212.5 54.23L212.5 69.23L17.443 69.23C17.44 69.23 15 69.23 15 69.23L15 54.23L15 54.23ZM202.031 84.23L199.707 111.73L27.792 111.73L25.468 84.23L202.031 84.23L202.031 84.23ZM29.06 126.73L198.44 126.73L187.275 258.845L40.225 258.845L29.06 126.73L29.06 126.73ZM430.652 338.267C430.289 342.57 426.181 346.345 421.863 346.345L290.637 346.345C286.319 346.345 282.211 342.571 281.848 338.267L278.939 303.845L433.563 303.845L430.652 338.267L430.652 338.267ZM455 288.845L441.602 288.845C441.583 288.845 270.935 288.845 270.935 288.845C270.914 288.845 270.893 288.845 270.873 288.845L199.101 288.845C199.082 288.845 88.278 288.845 88.278 288.845C84.135 288.845 80.778 292.203 80.778 296.345C80.778 300.487 84.135 303.845 88.278 303.845L191.062 303.845L188.153 338.267C187.79 342.57 183.682 346.345 179.364 346.345L48.137 346.345C43.819 346.345 39.711 342.571 39.348 338.267L36.439 303.845L58.278 303.845C62.421 303.845 65.778 300.487 65.778 296.345C65.778 292.203 62.421 288.845 58.278 288.845L28.434 288.845C28.413 288.845 28.392 288.845 28.372 288.845L15 288.845L15 273.845L33.313 273.845C33.335 273.845 194.165 273.845 194.165 273.845C194.187 273.845 275.813 273.845 275.813 273.845C275.835 273.845 436.665 273.845 436.665 273.845C436.687 273.845 455 273.845 455 273.845L455 288.845L455 288.845ZM282.725 258.845L271.56 126.73L440.94 126.73L429.775 258.845L282.725 258.845L282.725 258.845ZM442.208 111.73L270.292 111.73L267.968 84.23L444.531 84.23L442.208 111.73L442.208 111.73Z" id="Shape" fill="#FFFEFE" fill-rule="evenodd" stroke="none" />
      </g>
    </g>
  </g>
</svg>