<svg xmlns="http://www.w3.org/2000/svg" xmlns:xlink="http://www.w3.org/1999/xlink" width="463.008" height="463.008" version="1.1" viewBox="0 0 463.008 463.008"><defs><path id="path_1" d="M0 0L463.008 0L463.008 463.008L0 463.008L0 0Z"/><clipPath id="mask_1"><use xlink:href="#path_1"/></clipPath></defs><g id="speedometer-svgrepo-com"><path id="Background" fill="none" fill-rule="evenodd" stroke="none" d="M0 0L463.008 0L463.008 463.008L0 463.008L0 0Z"/><g clip-path="url(#mask_1)"><g id="Group" transform="translate(0 68.0027)"><g id="Group"><path id="Shape" fill="#FFF" fill-rule="evenodd" stroke="none" d="M461.948 209.173C456.846 154.913 432.161 103.853 392.44 65.3983C352.74 26.9633 300.906 3.9073 246.486 0.477303C213.738 -1.5857 181.745 3.0453 151.385 14.2443C122.202 25.0083 95.853 41.3143 73.068 62.7083C50.245 84.1383 32.28 109.462 19.672 137.978C6.619 167.5 0 198.966 0 231.503C0 256.949 4.115 281.976 12.231 305.89C16.516 318.518 28.485 327.003 42.012 327.003L420.985 327.003C434.514 327.003 446.484 318.516 450.771 305.883C461.303 274.848 465.063 242.309 461.948 209.173L461.948 209.173ZM436.566 301.063C434.346 307.606 428.085 312.003 420.985 312.003L42.013 312.003C34.915 312.003 28.656 307.609 26.437 301.069C18.848 278.712 15 255.306 15 231.503C15 201.068 21.188 171.643 33.391 144.043C45.182 117.376 61.986 93.6893 83.336 73.6433C123.917 35.5403 176.023 14.9993 231.351 14.9993C236.059 14.9993 240.793 15.1473 245.543 15.4473C350.564 22.0673 437.177 105.954 447.015 210.577C449.931 241.597 446.416 272.041 436.566 301.063L436.566 301.063Z"/><path id="Shape" fill="#FFF" fill-rule="evenodd" stroke="none" d="M323.089 129.438L227.089 199.256C226.57 199.633 226.122 200.07 225.73 200.542C211.108 203.261 200 216.105 200 231.503C200 248.872 214.131 263.003 231.5 263.003C246.895 263.003 259.736 251.899 262.459 237.282C262.933 236.889 263.368 236.435 263.747 235.914L333.565 139.914C335.736 136.93 335.413 132.809 332.803 130.2C330.193 127.59 326.073 127.267 323.089 129.438L323.089 129.438ZM231.5 248.003C222.402 248.003 215 240.601 215 231.503C215 222.405 222.402 215.003 231.5 215.003C240.598 215.003 248 222.405 248 231.503C248 240.601 240.598 248.003 231.5 248.003L231.5 248.003ZM259.245 216.602C256.315 211.167 251.835 206.688 246.401 203.758L293.497 169.507L259.245 216.602L259.245 216.602Z"/><path id="Shape" fill="#FFF" fill-rule="evenodd" stroke="none" d="M415.813 155.158C415.79 155.103 415.761 155.052 415.737 154.998C405.773 131.093 391.289 109.529 373.356 91.3773C373.12 91.0493 372.863 90.7313 372.568 90.4363C372.273 90.1413 371.956 89.8843 371.628 89.6493C353.478 71.7173 331.917 57.2353 308.016 47.2713C307.958 47.2453 307.904 47.2143 307.846 47.1903C307.777 47.1613 307.706 47.1423 307.636 47.1153C284.163 37.3863 258.45 32.0043 231.5 32.0043C204.551 32.0043 178.838 37.3873 155.365 47.1153C155.295 47.1423 155.224 47.1613 155.155 47.1903C155.096 47.2143 155.042 47.2453 154.985 47.2713C131.084 57.2353 109.523 71.7173 91.373 89.6493C91.045 89.8843 90.728 90.1413 90.433 90.4363C90.138 90.7313 89.881 91.0493 89.645 91.3773C71.711 109.53 57.227 131.094 47.264 154.999C47.24 155.053 47.211 155.103 47.188 155.158C47.161 155.223 47.143 155.29 47.117 155.356C37.385 178.832 32 204.549 32 231.503C32 251.269 34.909 270.845 40.646 289.688C41.608 292.846 44.52 295.003 47.821 295.003L415.18 295.003C418.481 295.003 421.393 292.845 422.355 289.688C428.091 270.848 431.001 251.271 431.001 231.503C431.001 204.549 425.616 178.832 415.885 155.356C415.859 155.29 415.841 155.223 415.813 155.158L415.813 155.158ZM409.536 280.003L53.465 280.003C49.827 266.629 47.729 252.886 47.169 239.003L63.5 239.003C67.643 239.003 71 235.645 71 231.503C71 227.361 67.643 224.003 63.5 224.003L47.165 224.003C47.955 204.358 51.819 185.493 58.308 167.883L73.418 174.142C74.356 174.531 75.328 174.715 76.285 174.715C79.228 174.715 82.02 172.971 83.2169 170.083C84.8029 166.256 82.9859 161.869 79.1579 160.284L64.076 154.037C72.201 136.546 82.986 120.535 95.9109 106.522L107.402 118.013C108.867 119.477 110.787 120.21 112.706 120.21C114.625 120.21 116.545 119.478 118.01 118.013C120.939 115.084 120.939 110.335 118.01 107.407L106.518 95.9153C120.53 82.9893 136.542 72.2053 154.033 64.0803L160.281 79.1633C161.477 82.0513 164.269 83.7953 167.213 83.7953C168.169 83.7953 169.142 83.6113 170.08 83.2223C173.907 81.6373 175.725 77.2493 174.139 73.4233L167.88 58.3143C185.49 51.8243 204.356 47.9603 224.001 47.1703L224.001 63.5053C224.001 67.6473 227.358 71.0053 231.501 71.0053C235.644 71.0053 239.001 67.6473 239.001 63.5053L239.001 47.1703C258.646 47.9603 277.512 51.8243 295.122 58.3143L288.863 73.4233C287.277 77.2503 289.094 81.6373 292.922 83.2223C293.86 83.6113 294.832 83.7953 295.789 83.7953C298.732 83.7953 301.524 82.0513 302.721 79.1633L308.969 64.0803C326.46 72.2053 342.471 82.9903 356.484 95.9153L344.992 107.407C342.063 110.336 342.063 115.085 344.992 118.013C346.457 119.477 348.377 120.21 350.296 120.21C352.215 120.21 354.135 119.478 355.6 118.013L367.091 106.522C380.017 120.534 390.801 136.546 398.926 154.037L383.844 160.284C380.017 161.869 378.199 166.257 379.785 170.083C380.981 172.971 383.773 174.715 386.717 174.715C387.673 174.715 388.646 174.531 389.584 174.142L404.694 167.883C411.183 185.493 415.048 204.359 415.837 224.003L399.5 224.003C395.357 224.003 392 227.361 392 231.503C392 235.645 395.357 239.003 399.5 239.003L415.832 239.003C415.271 252.888 413.173 266.63 409.536 280.003L409.536 280.003Z"/></g></g></g></g></svg>