<?xml version="1.0" encoding="iso-8859-1"?>
<!-- Generator: Adobe Illustrator 19.0.0, SVG Export Plug-In . SVG Version: 6.00 Build 0)  -->
<svg version="1.1" id="Layer_1" xmlns="http://www.w3.org/2000/svg" xmlns:xlink="http://www.w3.org/1999/xlink" x="0px" y="0px"
	 viewBox="0 0 512 512" style="enable-background:new 0 0 512 512;" xml:space="preserve">
<path style="fill:#FFC033;" d="M431.122,405.727c-10.014,4.785-20.254,9.124-30.713,13.02
	c-44.957,17.026-93.586,26.373-144.442,26.485c-50.257,0-98.61-8.671-144.553-25.928c-10.459-3.895-20.809-8.235-30.825-12.909
	l12.575-31.047l69.773-172.818l35.721-88.579L240.499,10.46C243.06,4.117,249.179,0,255.967,0c6.788,0,12.907,4.117,15.468,10.46
	l147.112,364.22L431.122,405.727z"/>
<path style="fill:#F9A926;" d="M431.122,405.727c-10.014,4.785-20.254,9.124-30.713,13.02
	c-44.957,17.026-93.586,26.373-144.442,26.485V0c6.788,0,12.907,4.117,15.468,10.46l147.112,364.22L431.122,405.727z"/>
<g>
	<path style="fill:#F26D76;" d="M255.967,126.08c-10.683-9.125-24.593-14.689-39.728-14.689c-6.119,0-12.018,0.89-17.582,2.559
		l-35.721,88.579c10.461,18.695,30.491,31.27,53.302,31.27c15.135,0,29.045-5.564,39.728-14.689
		c13.13-11.239,21.476-27.931,21.476-46.515C277.443,154.012,269.097,137.32,255.967,126.08z"/>
	<path style="fill:#F26D76;" d="M271.879,256.056c-5.453,0-10.794,0.668-15.912,2.114c-0.223,0.111-0.556,0.111-0.78,0.223
		c-25.593,7.233-44.512,30.936-44.512,58.867c0,27.931,18.919,51.634,44.512,58.867c0.223,0.111,0.556,0.111,0.78,0.223
		c5.119,1.447,10.459,2.114,15.912,2.114c33.718,0,61.204-27.486,61.204-61.204S305.597,256.056,271.879,256.056z"/>
</g>
<path style="fill:#FFEFD9;" d="M441.249,475.055C382.049,499.537,319.731,512,255.967,512c-63.578,0-125.879-12.446-185.17-36.945
	c-8.457-3.561-12.575-13.242-9.124-21.7l18.918-46.96l12.575-31.047c10.015,4.785,20.252,9.125,30.825,13.02
	c41.865,15.628,85.865,23.48,131.978,23.48c46.403-0.111,90.803-8.569,131.867-24.037c10.461-3.895,20.698-8.235,30.713-13.131
	l12.575,31.047l19.251,47.628C453.712,461.813,449.705,471.494,441.249,475.055z"/>
<g>
	<path style="fill:#E65C64;" d="M333.083,317.26c0,33.718-27.486,61.204-61.204,61.204c-5.453,0-10.794-0.668-15.912-2.114V258.17
		c5.119-1.447,10.459-2.114,15.912-2.114C305.597,256.056,333.083,283.542,333.083,317.26z"/>
	<path style="fill:#E65C64;" d="M277.443,172.596c0,18.584-8.346,35.276-21.476,46.515v-93.03
		C269.097,137.32,277.443,154.012,277.443,172.596z"/>
</g>
<path style="fill:#FFD9B3;" d="M441.249,475.055C382.049,499.537,319.731,512,255.967,512V411.848
	c46.403-0.111,90.803-8.569,131.867-24.037c10.461-3.895,20.698-8.235,30.713-13.131l12.575,31.047l19.251,47.628
	C453.712,461.813,449.705,471.494,441.249,475.055z"/>
<g>
</g>
<g>
</g>
<g>
</g>
<g>
</g>
<g>
</g>
<g>
</g>
<g>
</g>
<g>
</g>
<g>
</g>
<g>
</g>
<g>
</g>
<g>
</g>
<g>
</g>
<g>
</g>
<g>
</g>
</svg>
