<svg xmlns="http://www.w3.org/2000/svg" xmlns:xlink="http://www.w3.org/1999/xlink" id="Layer_1" x="0" y="0" version="1.1" viewBox="0 0 320 320" xml:space="preserve" style="enable-background:new 0 0 320 320"><g id="XMLID_934_"><g id="XMLID_935_"><path id="XMLID_936_" d="M300,124.677v-20c0-54.872-44.482-99.355-99.355-99.355h-81.289 C64.482,5.323,20,49.805,20,104.677v20H300z" style="fill:#ffad41"/><path id="XMLID_937_" d="M160,5.323h-40.645C64.482,5.323,20,49.805,20,104.677v20h140V5.323z" style="fill:#ff9811"/><circle id="XMLID_938_" cx="70" cy="75.323" r="10" style="fill:#804c09"/><circle id="XMLID_939_" cx="120" cy="45.322" r="10" style="fill:#804c09"/><circle id="XMLID_940_" cx="250" cy="75.323" r="10" style="fill:#bd720d"/><circle id="XMLID_941_" cx="200" cy="45.322" r="10" style="fill:#bd720d"/><circle id="XMLID_942_" cx="160" cy="75.323" r="10" style="fill:#bd720d"/><path id="XMLID_943_" d="M160,65.323c-5.523,0-10,4.477-10,10c0,5.523,4.477,10,10,10" style="fill:#804c09"/></g><path id="XMLID_944_" d="M270,204.678H50c-16.568,0-30,13.432-30,30s13.432,30,30,30h220 c16.568,0,30-13.432,30-30S286.568,204.678,270,204.678z" style="fill:#bd720d"/><path id="XMLID_945_" d="M160,204.678H50c-16.568,0-30,13.432-30,30s13.432,30,30,30h110V204.678z" style="fill:#804c09"/><path id="XMLID_946_" d="M320,284.677c0,16.568-13.432,30-30,30H30c-16.568,0-30-13.432-30-30l0,0 c0-16.568,13.432-30,30-30h260C306.568,254.678,320,268.109,320,284.677L320,284.677z" style="fill:#ffad41"/><path id="XMLID_947_" d="M160,254.678H30c-16.568,0-30,13.432-30,30s13.432,30,30,30h130V254.678z" style="fill:#ff9811"/><g id="XMLID_948_"><polygon id="XMLID_949_" points="60 214.678 160 204.678 260 214.678 160 264.677" style="fill:#ffe98f"/><polygon id="XMLID_950_" points="60 214.678 160 204.678 160 264.677" style="fill:#ffda44"/></g><path id="XMLID_951_" d="M270,134.678H50c-16.568,0-30,13.432-30,30s13.432,30,30,30h220 c16.568,0,30-13.432,30-30S286.568,134.678,270,134.678z" style="fill:#bd720d"/><path id="XMLID_952_" d="M160,134.678H50c-16.568,0-30,13.432-30,30s13.432,30,30,30h110V134.678z" style="fill:#804c09"/><path id="XMLID_953_" d="M320,199.678c0,8.284-6.715,15-15,15H15c-8.283,0-15-6.716-15-15l0,0 c0-8.284,6.717-15,15-15h290C313.285,184.678,320,191.393,320,199.678L320,199.678z" style="fill:#ff5023"/><path id="XMLID_954_" d="M160,184.678H15c-8.283,0-15,6.716-15,15s6.717,15,15,15h145V184.678z" style="fill:#bd3c1a"/><g id="XMLID_955_"><polygon id="XMLID_956_" points="60 144.678 160 134.678 260 144.678 160 194.678" style="fill:#ffe98f"/><polygon id="XMLID_957_" points="60 144.678 160 134.678 160 194.678" style="fill:#ffda44"/></g><path id="XMLID_958_" d="M320,129.678c0,8.284-6.715,15-15,15H15c-8.283,0-15-6.716-15-15l0,0 c0-8.284,6.717-15,15-15h290C313.285,114.677,320,121.393,320,129.678L320,129.678z" style="fill:#91dc5a"/><path id="XMLID_959_" d="M160,114.677H15c-8.283,0-15,6.716-15,15s6.717,15,15,15h145V114.677z" style="fill:#64c37d"/></g></svg>