<svg xmlns="http://www.w3.org/2000/svg" xmlns:xlink="http://www.w3.org/1999/xlink" id="Capa_1" x="0" y="0" version="1.1" viewBox="0 0 319.707 319.707" xml:space="preserve" style="enable-background:new 0 0 319.707 319.707"><g id="XMLID_12_"><path id="XMLID_443_" d="M199.708,9.946l-24.98,31.267c63.993,51.315,104.98,130.139,104.98,218.547 c14.238,0,27.709,0,40,0C319.707,158.706,272.864,68.591,199.708,9.946z" style="fill:#ff9811"/><path id="XMLID_444_" d="M159.707,229.76c-24.852,0-45-20.147-45-45c0-24.853,20.148-45,45-45V60.167 C107.339,125.587,0,259.947,0,259.947h159.707v-0.186V229.76z M74.707,239.76c-8.284,0-15-6.716-15-15c0-8.284,6.716-15,15-15 s15,6.716,15,15C89.707,233.045,82.991,239.76,74.707,239.76z" style="fill:#fff0b4"/><path id="XMLID_447_" d="M174.727,41.214c0-0.072-15.02,18.953-15.02,18.953v79.594 c24.852,0,45,20.147,45,45c0,24.853-20.148,45-45,45v30v0.186v29.814c0,11.046,8.954,20,20,20s20-8.954,20-20v-30 c27.563,0,54.97,0,80,0C279.707,171.352,238.721,92.529,174.727,41.214z M234.707,209.76c8.284,0,15,6.716,15,15 c0,8.284-6.716,15-15,15s-15-6.716-15-15C219.707,216.476,226.423,209.76,234.707,209.76z M184.707,119.76c-8.284,0-15-6.716-15-15 c0-8.284,6.716-15,15-15s15,6.716,15,15C199.707,113.045,192.991,119.76,184.707,119.76z" style="fill:#ffda44"/><path id="XMLID_451_" d="M204.707,184.76c0-24.853-20.148-45-45-45v90 C184.559,229.76,204.707,209.613,204.707,184.76z" style="fill:#b02768"/><path id="XMLID_452_" d="M114.707,184.76c0,24.853,20.148,45,45,45v-90 C134.855,139.76,114.707,159.907,114.707,184.76z" style="fill:#ea348b"/><circle id="XMLID_453_" cx="184.707" cy="104.76" r="15" style="fill:#50412e"/><circle id="XMLID_454_" cx="74.707" cy="224.76" r="15" style="fill:#50412e"/><circle id="XMLID_455_" cx="234.707" cy="224.76" r="15" style="fill:#50412e"/></g></svg>